<svg width="108" height="26" viewBox="0 0 108 26" fill="none" xmlns="http://www.w3.org/2000/svg">
<path d="M108 4.5C108 5.88071 106.881 7 105.5 7C104.119 7 103 5.88071 103 4.5C103 3.11929 104.119 2 105.5 2C106.881 2 108 3.11929 108 4.5Z" fill="#F86F2D"/>
<path d="M1.79775 19.944H6.46975C6.53375 21.064 7.36575 21.736 8.86975 21.736C10.4058 21.736 11.1098 21.192 11.1098 20.36C11.1098 19.88 10.8538 19.368 9.66975 19.112L6.72575 18.472C3.78175 17.832 2.34175 16.552 2.34175 13.736C2.34175 10.408 5.18975 8.488 9.02975 8.488C12.7418 8.488 15.3338 10.664 15.3338 13.896H10.6618C10.6618 12.808 9.98975 12.072 8.80575 12.072C7.68575 12.072 6.98175 12.648 6.98175 13.512C6.98175 14.248 7.58975 14.664 8.70975 14.92L11.6858 15.56C14.3098 16.136 15.7498 17.352 15.7498 19.912C15.7498 23.336 12.8378 25.416 8.67775 25.416C4.45375 25.416 1.79775 23.176 1.79775 19.944ZM17.4608 16.968C17.4608 11.912 21.1727 8.52 26.2928 8.52C31.3808 8.52 35.0928 11.912 35.0928 16.968C35.0928 22.024 31.3808 25.384 26.2928 25.384C21.1727 25.384 17.4608 22.024 17.4608 16.968ZM22.4208 16.936C22.4208 19.368 23.9888 20.968 26.2928 20.968C28.5648 20.968 30.1328 19.368 30.1328 16.936C30.1328 14.536 28.5648 12.936 26.2928 12.936C23.9888 12.936 22.4208 14.536 22.4208 16.936ZM37.0858 16.936C37.0858 12.008 40.4778 8.488 45.2778 8.488C50.0138 8.488 53.1498 11.08 53.4698 15.272H48.5098C48.1578 13.672 47.1658 12.904 45.4698 12.904C43.3898 12.904 42.0458 14.472 42.0458 16.936C42.0458 19.496 43.2938 21 45.4058 21C47.1338 21 48.1898 20.2 48.5098 18.632H53.4698C53.1498 22.664 49.8858 25.416 45.4058 25.416C40.3498 25.416 37.0858 22.056 37.0858 16.936ZM58.6005 6.504C57.0325 6.504 55.7845 5.256 55.7845 3.688C55.7845 2.12 57.0325 0.903999 58.6005 0.903999C60.1365 0.903999 61.3845 2.12 61.3845 3.688C61.3845 5.256 60.1365 6.504 58.6005 6.504ZM56.1685 25V9H61.0965V25H56.1685ZM69.6255 25.416C66.2335 25.416 64.1215 23.432 64.1215 20.296C64.1215 17.352 66.2015 15.528 70.0415 15.24L74.5215 14.888V14.632C74.5215 13.064 73.5615 12.232 71.8015 12.232C69.7215 12.232 68.6015 13.032 68.6015 14.472H64.5055C64.5055 10.856 67.4815 8.488 72.0575 8.488C76.6975 8.488 79.3215 11.08 79.3215 15.656V25H74.9695L74.6495 22.888C74.1375 24.36 72.0255 25.416 69.6255 25.416ZM71.3535 21.768C73.2415 21.768 74.5535 20.84 74.5535 19.016V18.152L72.0575 18.376C69.9135 18.568 69.1455 19.048 69.1455 20.072C69.1455 21.224 69.8495 21.768 71.3535 21.768ZM87.784 25H82.856V0.872H87.784V25ZM90.329 19.944H95.001C95.065 21.064 95.897 21.736 97.401 21.736C98.937 21.736 99.641 21.192 99.641 20.36C99.641 19.88 99.385 19.368 98.201 19.112L95.257 18.472C92.313 17.832 90.873 16.552 90.873 13.736C90.873 10.408 93.721 8.488 97.561 8.488C101.273 8.488 103.865 10.664 103.865 13.896H99.193C99.193 12.808 98.521 12.072 97.337 12.072C96.217 12.072 95.513 12.648 95.513 13.512C95.513 14.248 96.121 14.664 97.241 14.92L100.217 15.56C102.841 16.136 104.281 17.352 104.281 19.912C104.281 23.336 101.369 25.416 97.209 25.416C92.985 25.416 90.329 23.176 90.329 19.944Z" fill="black"/>
</svg>
